<?xml version="1.0" encoding="iso-8859-1"?>
<!-- Generator: Adobe Illustrator 19.0.0, SVG Export Plug-In . SVG Version: 6.00 Build 0)  -->
<svg version="1.1" id="Layer_1" xmlns="http://www.w3.org/2000/svg" xmlns:xlink="http://www.w3.org/1999/xlink" x="0px" y="0px"
	 viewBox="0 0 296.088 296.088" style="enable-background:new 0 0 296.088 296.088;" xml:space="preserve">
<g>
	<path style="fill:#FFE49C;" d="M263.971,171.5c0-6.068,1.042-11.89,2.938-17.311c-22.417-5.964-38.938-26.393-38.938-50.689
		c0-8.447,2.008-16.421,5.556-23.49c-24.235-4.631-42.556-25.926-42.556-51.51c0-5.5,0.851-10.801,2.421-15.783
		C181.288,9.321,168.527,7.5,155.339,7.5c-77.62,0-140.544,62.924-140.544,140.544s62.924,140.544,140.544,140.544
		c55.205,0,102.966-31.834,125.953-78.141C270.657,200.847,263.971,186.956,263.971,171.5z"/>
	<circle style="fill:#F59D00;" cx="75.631" cy="176.928" r="15.965"/>
	<circle style="fill:#F59D00;" cx="144.756" cy="89.757" r="19.253"/>
	<g>
		<circle style="fill:#F59D00;" cx="167.959" cy="220.649" r="27.757"/>
		<g>
			<path style="fill:#414042;" d="M286.318,204.88c-13.366-12.066-18.328-31.054-12.33-48.217c1.439-4.118-0.93-8.599-5.152-9.723
				c-27.495-7.315-41.344-38.186-28.607-63.565c2.232-4.448-0.415-9.8-5.295-10.73c-26.258-5.018-42.489-31.967-34.39-57.674
				c1.271-4.034-1.048-8.332-5.128-9.475C182.419,1.849,168.935,0,155.339,0C73.707,0,7.295,66.412,7.295,148.044
				s66.412,148.044,148.044,148.044c57.262,0,108.061-32.729,132.671-82.306C289.505,210.77,288.813,207.133,286.318,204.88z
				 M155.339,281.088c-73.361,0-133.044-59.684-133.044-133.044S81.978,15,155.339,15c9.799,0,19.531,1.067,29.021,3.178
				c-5.072,29.141,11.83,57.209,39.02,66.834c-9.631,29.571,5.199,62.114,34.401,74.012c-4.063,19.079,1.474,38.717,14.317,52.837
				C249.265,253.562,205.176,281.088,155.339,281.088z"/>
			<path style="fill:#414042;" d="M75.631,153.462c-12.939,0-23.465,10.526-23.465,23.466c0,12.938,10.526,23.465,23.465,23.465
				c12.938,0,23.465-10.526,23.465-23.465C99.096,163.988,88.57,153.462,75.631,153.462z M75.631,185.393
				c-4.668,0-8.465-3.797-8.465-8.465s3.797-8.466,8.465-8.466s8.465,3.798,8.465,8.466S80.299,185.393,75.631,185.393z"/>
			<path style="fill:#414042;" d="M171.509,89.757c0-14.752-12.001-26.753-26.752-26.753c-14.751,0-26.753,12.001-26.753,26.753
				c0,14.751,12.001,26.752,26.753,26.752C159.508,116.509,171.509,104.508,171.509,89.757z M133.004,89.757
				c0-6.48,5.272-11.753,11.753-11.753s11.752,5.272,11.752,11.753s-5.272,11.752-11.752,11.752S133.004,96.237,133.004,89.757z"/>
			<path style="fill:#414042;" d="M167.958,185.393c-19.441,0-35.256,15.816-35.256,35.257c0,19.44,15.816,35.257,35.256,35.257
				c19.441,0,35.257-15.816,35.257-35.257S187.399,185.393,167.958,185.393z M167.958,240.906c-11.169,0-20.256-9.087-20.256-20.257
				s9.087-20.257,20.256-20.257c11.169,0,20.257,9.087,20.257,20.257S179.128,240.906,167.958,240.906z"/>
		</g>
	</g>
</g>
<g>
</g>
<g>
</g>
<g>
</g>
<g>
</g>
<g>
</g>
<g>
</g>
<g>
</g>
<g>
</g>
<g>
</g>
<g>
</g>
<g>
</g>
<g>
</g>
<g>
</g>
<g>
</g>
<g>
</g>
</svg>
