<?xml version="1.0" ?><svg id="Layer_7" style="enable-background:new 0 0 128 128;" version="1.1" viewBox="0 0 128 128" xml:space="preserve" xmlns="http://www.w3.org/2000/svg" xmlns:xlink="http://www.w3.org/1999/xlink"><style type="text/css">
	.st0{fill:#D8A339;}
	.st1{fill:#FFCA55;}
	.st2{fill:#492A04;}
	.st3{fill:#663C04;}
	.st4{fill:#231F20;}
</style><path class="st0" d="M103.8,89.4c-3.1,3.8-7.5,6.5-11.9,9c-3.2,1.8-6.4,3.6-9.6,5.3c-4.8,2.5-9.8,5-15.3,5.9  c-6.6,1-13.3-0.4-19.4-3.2l34.4-82.9c0.1,0.1,0.2,0.1,0.3,0.2c10.7,6.1,21.4,13.7,25,24.6c1.3,3.9,1.6,8.1,1.9,12.2  C110,70.5,110.4,81.4,103.8,89.4z"/><path class="st1" d="M82.1,23.6l-34.4,82.9c-2.3-1.1-4.6-2.3-6.7-3.7c-10.9-7.3-18.8-18.2-21.7-30.2c-2.9-12-0.8-25,6-35.6  c1.6-2.5,3.5-4.9,5.8-6.9c3.1-2.7,6.9-4.7,10.7-6.5c5.9-2.8,12.3-5.4,18.9-5.2C64.8,19.3,78,21.5,82.1,23.6z"/><path class="st2" d="M66.6,106.6c-3.2,0.8-6.4,1.3-9.6,0.6c-0.8-0.2-4.1-1.2-7.3-2.2c-0.6-0.2-1.1-0.5-1.7-0.7l2.2-5.3  c2-0.3,4.1-0.2,5.7-0.1C61.1,99.3,64.2,102.6,66.6,106.6z"/><path class="st3" d="M50.3,98.9l-2.2,5.3c-1.3-0.6-2.6-1.3-3.9-2c0.5-0.6,1.1-1.2,1.7-1.7C46.9,99.6,48.5,99.1,50.3,98.9z"/><path class="st3" d="M21.2,52.3c-0.9,4.4-1,13.4-1,13.6c1-0.5,1.9-1,2.5-1.6c1.8-1.7,2-4.7,2-7C24.8,54.1,24.1,53.6,21.2,52.3  C21.3,52.3,21.3,52.3,21.2,52.3z"/><path class="st3" d="M35.5,77.7c0.3,0.9,0.5,1.8,0.7,2.7c1.9,0.5,4.1,0.6,5.9,0.9c2.4,0.3,3.2-1.3,4.6-3c2.8-3.4,1.6-6.3,0.9-9.8  c-2.8-0.4-6-0.8-7.9,0.5c-1.9,1.2-4.1,4.3-5.4,6.7C34.7,76.3,35.2,77,35.5,77.7z"/><path class="st3" d="M46.9,49.4c2.6-1.4,7.6-5,6.9-8.5c-0.3-1.6-2.1-2.4-3.6-3c-3,0.9-6,2.4-7.4,5.3c-0.8,1.6-1.5,3.7-0.6,5.2  C43.4,50.3,45.2,50.4,46.9,49.4z"/><path class="st3" d="M65.1,33c-0.2,0.9-0.3,1.8-0.4,2.7c0,0,0,0.1,0,0.2c1.8,1.3,3.7,2.7,5.5,3.2c1.3,0.3,2.9-0.8,4.2-1.6  c1.7-1.1,2.5-2.2,2.7-3.8c-3.5-2.1-7.3-4.2-11.3-4.3C65.5,30.6,65.3,31.8,65.1,33z"/><path class="st2" d="M97.2,38.9c-0.9,0.9-1.9,1.7-2.5,2.8c-1.3,2.1-1.6,7.1-0.2,9.4c1.7,2.9,6.8,1,9.6,1.1c0.5,0,1,0,1.5,0.1  C104.2,47,100.8,42.8,97.2,38.9z"/><path class="st2" d="M68.6,84.2c2.5,1.6,3.6,0.9,6.1,0c2.5-0.9,5.4-1,7.8-2c3-1.3,3.6-3.1,4.3-6.3c1.6-7.6-2.9-13.7-11-13.5  c0,0-0.1,0-0.1,0c-5.9,2.2-8.9,6.8-10.1,13.2C64.9,78.9,65.7,82.3,68.6,84.2z"/><path class="st4" d="M108.2,43c-4.9-9.5-15-16.9-24.4-21.7c-6.8-3.4-22.9-5.8-23.2-5.8c-10.4,0-22.3,5-30.4,11.5  C22.4,33.4,17.7,43.7,16,53.4c-3.5,20.4,6.6,40.4,23.6,51.6c0.3,0.2,6.3,4,9.3,4.8c6.5,2.5,13.6,3.5,20.5,2.1  c10.3-2.2,21.1-8.8,29.6-14.7c8.6-6,12.6-14.2,13.3-24.6C112.9,63.2,112.7,51.6,108.2,43z M97.4,40c2.9,3.2,5.7,6.6,6.7,10.7  c-0.4,0-0.8-0.1-1.2-0.1c-2.3,0-6.4,1.5-7.8-0.9c-1.1-1.8-0.9-5.8,0.2-7.5C95.9,41.4,96.7,40.7,97.4,40z M21.6,53.6  c2.1,1.1,2.6,1.4,2.6,4.1c0,1.9-0.2,4.3-1.5,5.7c-0.5,0.5-1.1,0.9-1.8,1.3C20.8,64.5,20.9,57.1,21.6,53.6  C21.6,53.6,21.6,53.6,21.6,53.6z M56.6,106.5c-0.7-0.1-3.6-1-6.3-1.9c-1.7-0.7-3.3-1.5-4.9-2.3c0.5-0.5,0.9-1,1.5-1.5  c2-1.7,6.2-1.7,8.8-1.5c4.5,0.4,7.2,3.3,9.3,6.8C62.2,106.7,59.3,107.1,56.6,106.5z M103.5,84.9c-4.7,8.2-15.3,12.7-23.3,16.9  c-3.1,1.6-6.1,2.9-9.2,3.9c-1.4-3-2.6-6.5-5.6-8.2c-2.3-1.4-4.8-3.3-7.5-3.7c-3-0.4-7.5-0.4-10.5,0.3c-3.2,0.8-6.7,5.1-6.8,5.1  c-9.6-6.9-16.7-17.5-19-29c2-1,4.2-2.1,5.7-3.7c1.9-2,1.9-5,2.1-7.5c0.3-2.6,0.6-5.3-1.1-7.5C27,49.7,24.6,49.4,23,48  c1.7-5.1,4.3-10,7.9-13.9c6.7-7.5,19.6-12.9,29.6-13c5.5,1.2,11,2.1,16.4,3.6c6.5,1.8,12.7,6.1,17.8,10.6c-1.7,2.2-4.1,3.5-4.9,6.4  c-0.8,2.9-0.8,6.6,0.1,9.4c0.8,2.3,2.6,4.5,4.9,5.3c3.7,1.3,7.7-1.4,11.3,0.4c0.1,0,0.1,0,0.2,0.1c0.2,1.2,0.3,2.5,0.4,3.7  C107.1,68.6,107.7,77.6,103.5,84.9z M50.4,33.3c-3.9-1.1-11.5,5.2-12.8,10.7c-0.6,2.8-0.4,5.7,1.9,7.7c1.8,1.6,4.9,2.9,7.3,2.4  c2.6-0.5,5.2-2.7,7.1-4.5c2.1-1.9,3.7-4.4,4-7.2C58.4,37.4,54.7,34.5,50.4,33.3z M46.9,48.1c-1.4,0.8-2.9,0.7-3.7-0.8  c-0.7-1.2-0.1-2.9,0.5-4.2c1.1-2.3,3.5-3.6,5.9-4.3c1.2,0.4,2.6,1.1,2.9,2.4C52.9,44.1,48.9,46.9,46.9,48.1z M88.4,63.9  c-3-2.7-7.4-5.7-13-5c-8.4,1-13.4,9.6-13.6,18.3c-0.2,6.8,6.5,13.9,13.4,11.4c3.7-1.3,9.2-1.6,12.4-4c3.3-2.5,3-7,3.3-10.7  C91.1,70.1,91.3,66.6,88.4,63.9z M85.2,75.7c-0.5,2.6-1,4.1-3.5,5.2c-1.9,0.8-4.4,0.9-6.5,1.7c-2.1,0.8-3,1.4-5.1,0  c-2.5-1.6-3.1-4.4-2.6-7.2c1-5.3,3.5-9.2,8.4-11c0,0,0.1,0,0.1,0C82.7,64.3,86.5,69.4,85.2,75.7z M49.3,64c-2.5-1.9-6.9-1-10-0.3  c-2.9,0.7-4.8,3.7-6.5,5.9c-1.4,1.8-3.7,4.2-3.1,6.7c0.4,1.7,1.5,3,1.9,4.8c0.3,1.1,0.3,2,1.3,2.9c2,1.7,7.3,1.8,9.8,2.1  c3,0.3,4.2-0.8,6.1-3c1.8-2.1,3.9-4.2,4.5-7C54,72.7,53,66.8,49.3,64z M46.1,77.7c-1.3,1.5-2,2.9-4.1,2.7c-1.6-0.2-3.5-0.4-5.2-0.8  c-0.2-0.8-0.3-1.6-0.6-2.3c-0.2-0.6-0.7-1.2-1-1.9c1.1-2.1,3-4.8,4.7-5.8c1.7-1.1,4.5-0.7,6.9-0.4C47.5,72.2,48.6,74.7,46.1,77.7z   M72.8,43.3c4.5-1.7,9-5.6,8.1-10.9c-0.5-2.9-4.4-4.3-6.8-5.4c-3.1-1.4-6.2-1.9-9.5-1.4c-2,1.3-5.2,11.4-2.4,13.7  C64.8,41.4,69.5,44.6,72.8,43.3z M75.5,34c-0.2,1.1-0.8,2-2,2.7c-1,0.6-2.1,1.4-3,1.2c-1.3-0.3-2.7-1.4-3.9-2.3c0-0.1,0-0.1,0-0.2  c0.1-0.7,0.2-1.3,0.3-2c0.1-0.9,0.3-1.7,0.4-2.6C70.2,31,73,32.5,75.5,34z"/></svg>